<svg width="17" height="29" viewBox="0 0 17 29" fill="none" xmlns="http://www.w3.org/2000/svg">
<path d="M12.6356 28.1872L0.712779 16.2643C0.453586 16.0052 0.270424 15.7244 0.163291 15.422C0.0544298 15.1196 0 14.7956 0 14.45C0 14.1044 0.0544298 13.7804 0.163291 13.478C0.270424 13.1756 0.453586 12.8948 0.712779 12.6356L12.6356 0.712779C13.1108 0.237592 13.7156 0 14.45 0C15.1844 0 15.7892 0.237592 16.2643 0.712779C16.7395 1.18797 16.9771 1.79275 16.9771 2.52713C16.9771 3.26151 16.7395 3.86629 16.2643 4.34148L6.15583 14.45L16.2643 24.5585C16.7395 25.0337 16.9771 25.6385 16.9771 26.3729C16.9771 27.1072 16.7395 27.712 16.2643 28.1872C15.7892 28.6624 15.1844 28.9 14.45 28.9C13.7156 28.9 13.1108 28.6624 12.6356 28.1872Z" fill="#085196"/>
</svg>
