<svg width="17" height="29" viewBox="0 0 17 29" fill="none" xmlns="http://www.w3.org/2000/svg">
<path d="M4.3414 0.71281L16.2643 12.6357C16.5235 12.8949 16.7066 13.1757 16.8138 13.4781C16.9226 13.7804 16.9771 14.1044 16.9771 14.45C16.9771 14.7956 16.9226 15.1196 16.8138 15.422C16.7066 15.7244 16.5235 16.0052 16.2643 16.2644L4.3414 28.1872C3.86621 28.6624 3.26143 28.9 2.52705 28.9C1.79267 28.9 1.18789 28.6624 0.712704 28.1872C0.237517 27.7121 -7.81473e-05 27.1073 -7.81473e-05 26.3729C-7.81473e-05 25.6385 0.237517 25.0337 0.712704 24.5585L10.8212 14.45L0.712704 4.34151C0.237517 3.86632 -7.81473e-05 3.26154 -7.81473e-05 2.52716C-7.81473e-05 1.79278 0.237517 1.188 0.712704 0.71281C1.18789 0.237623 1.79267 2.56728e-05 2.52705 2.56728e-05C3.26143 2.56728e-05 3.86621 0.237623 4.3414 0.71281Z" fill="#085196"/>
</svg>
