<svg width="71" height="71" viewBox="0 0 71 71" fill="none" xmlns="http://www.w3.org/2000/svg">
<rect width="71" height="71" rx="35.5" fill="white"/>
<path d="M50.6856 40.5554C48.5213 37.6685 46.3862 34.8198 44.1858 31.8837C43.914 32.1964 43.6948 32.4322 43.4937 32.6832C41.8509 34.7352 40.1949 36.7781 38.5805 38.853C38.1332 39.4279 37.6617 39.6768 36.9086 39.6726C30.9018 39.6401 24.8957 39.6546 18.8889 39.6546C18.7779 39.6546 18.6677 39.6567 18.5567 39.6539C17.8147 39.6331 17.5401 39.423 17.4985 38.6803C17.4458 37.742 17.4298 36.7982 17.4652 35.8593C17.5526 33.5369 17.7065 31.2186 18.2474 28.9454C18.5304 27.7575 18.9069 26.605 19.5019 25.5315C19.8826 24.845 20.3639 24.2458 20.9949 23.7736C21.6329 23.2958 22.343 23.0253 23.1495 23.026C25.9179 23.0281 28.6855 23.0434 31.4538 23.0163C32.1105 23.0101 32.3879 23.3388 32.5952 23.8783C33.3865 25.9434 34.1944 28.0023 34.9974 30.0633C35.0473 30.1902 35.1097 30.313 35.204 30.521C35.7859 30.521 36.3913 30.5578 36.9876 30.503C37.2345 30.4801 37.4862 30.2901 37.6977 30.1264C39.7552 28.5349 41.8183 26.9497 43.8515 25.3276C45.1213 24.3152 45.4424 24.5884 46.1719 25.7298C48.9284 30.0425 51.7161 34.3357 54.5136 38.6227C54.8645 39.1602 55.0156 39.6921 54.9983 40.328C54.9602 41.7392 54.9595 43.1504 54.6169 44.5325C54.5441 44.8265 54.4657 45.1226 54.3575 45.4048C53.8575 46.7127 52.9616 47.5525 51.5546 47.8417C49.9894 48.1634 48.5359 47.9471 47.1705 47.1094C45.3661 46.0019 43.9916 44.4603 42.7531 42.778C42.5055 42.4417 42.4154 42.079 42.6768 41.7017C42.9154 41.3571 43.2475 41.2995 43.7877 41.4396C44.6948 41.6754 45.5991 41.9618 46.5235 42.088C47.9797 42.2863 49.3348 41.9874 50.4221 40.8987C50.4984 40.8217 50.556 40.726 50.6863 40.5554H50.6856ZM36.281 37.9633C34.5404 33.4856 32.831 29.0897 31.1084 24.6591C30.8033 24.6591 30.5571 24.6591 30.311 24.6591C28.1515 24.6591 25.9907 24.7098 23.8326 24.6425C22.4609 24.6002 21.5719 25.2091 20.9429 26.3401C20.4277 27.2666 20.0955 28.2617 19.8757 29.295C19.7973 29.6646 19.7398 30.039 19.6635 30.4669H27.9358C27.5843 29.5973 27.2666 28.8137 26.9345 27.9912C26.0302 27.9912 25.1745 28.0058 24.3194 27.9864C23.6911 27.9725 23.3846 27.6882 23.3735 27.1764C23.3624 26.6591 23.6627 26.3741 24.2917 26.3644C25.3159 26.3484 26.3409 26.3692 27.3644 26.3547C27.8838 26.347 28.1938 26.5877 28.3637 27.0585C28.4483 27.2929 28.5496 27.5204 28.6418 27.752C29.0516 28.7797 29.4712 29.804 29.8657 30.8372C30.1771 31.6527 29.8567 32.1174 28.9809 32.1583C28.8152 32.1659 28.6487 32.1597 28.4823 32.1597C25.7688 32.1597 23.0559 32.1597 20.3424 32.1597C20.0456 32.1597 19.7481 32.1597 19.4763 32.1597C19.1496 33.4564 18.9964 36.9092 19.21 37.9626H36.2789L36.281 37.9633ZM45.762 43.8258C46.7696 44.8189 47.7585 45.7273 49.0782 46.1683C49.8313 46.4201 50.6017 46.3812 51.3701 46.1947C51.9172 46.0615 52.3236 45.7398 52.5774 45.2557C52.7556 44.9166 52.9339 44.5484 52.9817 44.176C53.1329 42.9992 53.2189 41.8141 53.3388 40.6338C53.3922 40.1102 53.2202 39.6747 52.9359 39.2392C50.3389 35.2497 47.7571 31.2512 45.1677 27.2569C45.0547 27.0821 44.9063 26.9302 44.7662 26.7583C44.4895 26.9649 44.2662 27.1272 44.0485 27.2964C42.2129 28.7228 40.3683 30.1382 38.5493 31.5862C38.0472 31.9856 37.5466 32.2463 36.8885 32.1652C36.5674 32.1257 36.238 32.1583 35.8122 32.1583C36.4731 33.8579 37.0896 35.4439 37.7491 37.1415C38.0015 36.8502 38.1846 36.6526 38.3531 36.4432C39.964 34.4356 41.5721 32.4259 43.1824 30.4184C43.3204 30.2457 43.45 30.0612 43.613 29.9142C43.9521 29.6077 44.3966 29.6063 44.7378 29.9052C44.8813 30.0314 44.9992 30.1902 45.115 30.3449C47.4409 33.444 49.7529 36.5528 52.0968 39.638C52.6974 40.4285 52.4984 40.873 52.1017 41.4327C51.2439 42.6435 50.0705 43.3993 48.6163 43.6323C47.7273 43.7745 46.8133 43.7606 45.7613 43.8265L45.762 43.8258Z" fill="#06569F"/>
<path d="M28.2832 47.9763C24.99 47.9763 21.6967 47.9694 18.4034 47.9812C17.4333 47.9846 16.6046 47.667 15.9444 46.9736C14.9694 45.95 14.7634 44.7226 15.2613 43.4348C15.7787 42.095 16.8334 41.3711 18.271 41.353C21.0379 41.3191 23.8055 41.3419 26.5731 41.3412C30.3921 41.3412 34.211 41.3364 38.0306 41.3468C38.4404 41.3482 38.8641 41.3794 39.2573 41.4862C40.8939 41.9314 41.8647 43.4619 41.6352 45.1789C41.4258 46.7475 40.0499 47.9631 38.412 47.9708C35.0355 47.986 31.6597 47.9756 28.2832 47.9756V47.9763ZM28.313 46.3404V46.3377C31.496 46.3377 34.6791 46.3377 37.8621 46.3363C38.111 46.3363 38.3634 46.346 38.6075 46.3078C39.3405 46.1927 39.9216 45.5762 40.0028 44.8578C40.0902 44.0811 39.6567 43.3578 38.8946 43.1158C38.5611 43.0097 38.1894 42.9875 37.8357 42.9875C31.4974 42.9806 25.1592 42.982 18.8209 42.9827C18.5997 42.9827 18.3757 42.9744 18.1579 43.0049C17.2592 43.1311 16.6656 43.8322 16.6892 44.7205C16.7128 45.6054 17.3452 46.2551 18.2675 46.3266C18.5428 46.3481 18.8209 46.3397 19.0976 46.3397C22.1696 46.3404 25.2424 46.3397 28.3144 46.3397L28.313 46.3404Z" fill="#06569F"/>
<path d="M38.3053 43.8446C38.7678 43.821 39.1506 44.1796 39.1583 44.6435C39.1659 45.0921 38.8614 45.4389 38.428 45.4736C37.953 45.5117 37.5647 45.1885 37.5279 44.7239C37.4919 44.2697 37.8462 43.8682 38.3053 43.8453V43.8446Z" fill="#06569F"/>
<path d="M24.2071 44.6505C24.2105 44.1976 24.5337 43.8592 24.9775 43.8433C25.429 43.8266 25.8416 44.2275 25.8339 44.6754C25.827 45.0929 25.4615 45.459 25.0365 45.4743C24.5441 45.4923 24.2029 45.1532 24.2071 44.6505Z" fill="#06569F"/>
<path d="M32.4978 44.6262C32.5165 45.0936 32.167 45.4632 31.6955 45.4743C31.2218 45.4854 30.8675 45.1352 30.8682 44.6574C30.8682 44.2198 31.192 43.8717 31.6233 43.8439C32.0776 43.8148 32.4798 44.1747 32.4978 44.6262Z" fill="#06569F"/>
<path d="M19.1532 44.6572C19.1539 45.135 18.7843 45.49 18.303 45.4727C17.8467 45.456 17.5423 45.1364 17.5381 44.669C17.534 44.1822 17.898 43.8236 18.3744 43.8458C18.8072 43.8659 19.1525 44.2251 19.1532 44.6572Z" fill="#06569F"/>
</svg>
