<svg width="37" height="37" viewBox="0 0 37 37" fill="none" xmlns="http://www.w3.org/2000/svg">
<g clip-path="url(#clip0_261_534)">
<path d="M10.43 16.685C12.59 20.93 16.07 24.395 20.315 26.57L23.615 23.27C24.02 22.865 24.62 22.73 25.145 22.91C26.825 23.465 28.64 23.765 30.5 23.765C31.325 23.765 32 24.44 32 25.265V30.5C32 31.325 31.325 32 30.5 32C16.415 32 5 20.585 5 6.5C5 5.675 5.675 5 6.5 5H11.75C12.575 5 13.25 5.675 13.25 6.5C13.25 8.375 13.55 10.175 14.105 11.855C14.27 12.38 14.15 12.965 13.73 13.385L10.43 16.685Z" fill="white"/>
</g>
<defs>
<clipPath id="clip0_261_534">
<rect width="36" height="36" fill="white" transform="translate(0.5 0.5)"/>
</clipPath>
</defs>
</svg>
