<svg width="71" height="71" viewBox="0 0 71 71" fill="none" xmlns="http://www.w3.org/2000/svg">
<rect width="71" height="71" rx="35.5" fill="white"/>
<path d="M27.669 30.5375C27.669 30.1061 27.669 29.8151 27.669 29.5241C27.6704 27.0334 27.6704 24.5433 27.6745 22.0526C27.6758 21.1016 27.7939 20.9409 28.7157 20.7103C30.6298 20.2314 32.5501 19.7796 34.4595 19.2831C34.9147 19.1644 35.2972 19.2085 35.7042 19.414C37.6584 20.4023 39.6126 21.392 41.5824 22.349C42.1487 22.6244 42.3611 23.0016 42.357 23.6242C42.336 26.6291 42.3488 29.6333 42.3502 32.6382C42.3502 32.9333 42.3502 33.2276 42.3502 33.6258C42.7836 33.4013 42.9268 33.0472 43.1486 32.7779C43.6478 32.1722 43.7855 32.1118 44.5391 32.3587C45.9778 32.8308 47.4144 33.3104 48.847 33.8015C49.5768 34.0518 49.6826 34.2139 49.684 34.9858C49.6874 37.7472 49.6881 40.5078 49.684 43.2692C49.684 43.626 49.7193 43.9455 49.935 44.2636C51.2197 46.1574 50.1717 48.4752 48.4156 49.1094C48.3152 49.1453 48.2236 49.2057 48.0954 49.2708V50.1011C48.4047 50.1323 48.6971 50.1465 48.9833 50.194C49.41 50.2652 49.6738 50.565 49.686 50.9571C49.6976 51.3267 49.4249 51.6564 49.0037 51.7392C48.7941 51.7805 48.5736 51.7799 48.3579 51.7799C39.1812 51.7812 30.0044 51.7812 20.8284 51.7799C20.6663 51.7799 20.5021 51.7887 20.342 51.7697C19.813 51.7059 19.5681 51.4631 19.5125 50.9422C19.4921 50.7549 19.5037 50.5637 19.5037 50.3744C19.5037 44.7981 19.5104 39.2218 19.4942 33.6455C19.4921 33.0452 19.6285 32.5514 20.007 32.08C20.6669 31.2572 21.2761 30.3937 21.9143 29.5533C22.4081 28.9028 22.5798 28.8499 23.3639 29.1076C24.749 29.5628 26.1313 30.0261 27.669 30.5368V30.5375ZM29.2651 22.2548C29.2651 22.6536 29.2651 22.9487 29.2651 23.243C29.2651 28.2245 29.2651 33.2053 29.2637 38.1867C29.2637 38.4031 29.2773 38.6222 29.2495 38.8352C29.1945 39.2611 28.9727 39.4667 28.5671 39.506C28.1391 39.5474 27.8217 39.3452 27.7192 38.926C27.6684 38.7192 27.669 38.4974 27.6684 38.2817C27.6657 36.5493 27.6684 34.8162 27.6684 33.0838C27.6684 32.8179 27.6684 32.5527 27.6684 32.2516C26.2962 31.7985 24.9803 31.3637 23.6108 30.9106V50.1024H27.6284V49.26C27.3814 49.1358 27.1644 49.0293 26.95 48.9181C25.9957 48.4209 25.3594 47.6443 25.2774 46.5766C25.1444 44.8388 25.6118 43.2285 26.8063 41.9336C27.7945 40.8619 29.2617 40.925 30.2385 42.0171C30.5925 42.4132 30.8449 42.907 31.104 43.3784C31.2708 43.6816 31.3651 44.0248 31.5028 44.3769H34.1719C34.1699 36.6015 34.1753 28.879 34.1692 21.0345C32.4735 21.4564 30.9127 21.8444 29.2651 22.2541V22.2548ZM35.8405 21.314V44.3816H40.6972V23.7348C39.1133 22.9453 37.5465 22.1645 35.8405 21.314ZM48.0473 42.8649V35.2395C46.7795 34.8183 45.5314 34.4045 44.2806 33.9887C43.738 34.7084 43.2646 35.367 42.7572 35.9985C42.4519 36.379 42.3353 36.7792 42.34 37.2676C42.3604 39.4063 42.3475 41.5456 42.3502 43.685C42.3502 43.9231 42.376 44.1612 42.3916 44.421C43.0326 44.5851 43.1913 45.026 43.1703 45.5999C43.1486 46.1947 43.1635 46.7909 43.1635 47.3865C43.1635 48.2764 43.1635 49.1664 43.1635 50.1051H46.3956V49.2952C44.396 48.2493 43.6356 46.8791 44.0982 45.2092C44.5506 43.5765 45.9092 42.749 48.0479 42.8649H48.0473ZM37.4508 50.0407C38.2485 50.2089 40.843 50.1974 41.463 50.0414C41.6061 49.1786 41.5763 46.7007 41.4087 46.0964H31.7524C31.6737 47.7358 30.773 48.7119 29.3085 49.2437V50.0373C30.098 50.2218 31.939 50.2035 32.5928 49.9952C32.5928 49.3441 32.5861 48.6705 32.5949 47.9976C32.6064 47.1145 32.797 46.9069 33.6964 46.8791C34.5341 46.8534 35.3732 46.8615 36.2116 46.8737C37.225 46.8886 37.4461 47.1206 37.4508 48.1286C37.4535 48.7723 37.4508 49.416 37.4508 50.04V50.0407ZM21.9042 32.4177C21.3514 32.8742 21.1004 33.3585 21.1038 34.0518C21.1275 39.1424 21.116 44.2338 21.116 49.3244V50.099H21.9048V32.4177H21.9042ZM30.0906 45.823C30.0336 45.0687 29.7928 44.2154 29.3119 43.4469C28.7849 42.6052 28.1744 42.6187 27.6385 43.4774C27.2024 44.1761 26.984 44.9534 26.8795 45.766C26.7452 46.8093 27.3699 47.6069 28.3752 47.6714C29.3824 47.7365 30.1103 47.0161 30.0899 45.823H30.0906ZM47.2564 44.4657C46.3156 44.4617 45.6108 45.1691 45.6244 46.1025C45.6373 46.9931 46.3393 47.689 47.2306 47.6938C48.1476 47.6992 48.8904 46.9571 48.8809 46.0469C48.8714 45.1807 48.1409 44.4684 47.2564 44.4651V44.4657ZM35.7992 50.1187V48.543H34.235C34.1414 49.085 34.0749 49.5991 34.2811 50.1187H35.7992Z" fill="#06569F"/>
<path d="M31.7051 27.3278C31.7051 27.6256 31.7288 27.9254 31.6996 28.2198C31.6542 28.6688 31.3788 28.913 30.9603 28.9259C30.5391 28.9388 30.2026 28.7197 30.1667 28.2774C30.1144 27.6344 30.1158 26.9798 30.1701 26.3368C30.2053 25.9169 30.5825 25.6775 30.9786 25.7019C31.3802 25.7263 31.6589 25.9902 31.701 26.4351C31.7288 26.7302 31.7064 27.03 31.7064 27.3278C31.7064 27.3278 31.7057 27.3278 31.7051 27.3278Z" fill="#06569F"/>
<path d="M31.6987 35.4769C31.6987 35.774 31.7231 36.0731 31.6926 36.3675C31.6465 36.8145 31.4383 37.016 31.0415 37.0621C30.6087 37.1123 30.2309 36.9271 30.1936 36.5066C30.1325 35.814 30.1468 35.1093 30.2024 34.4154C30.2309 34.0572 30.6304 33.8293 30.9784 33.851C31.3331 33.8734 31.6282 34.1359 31.6892 34.5063C31.7157 34.665 31.7096 34.8291 31.713 34.9913C31.7164 35.1534 31.7136 35.3155 31.7136 35.4776H31.6974L31.6987 35.4769Z" fill="#06569F"/>
<path d="M33.3349 39.5543C33.3349 39.8514 33.3566 40.1512 33.3288 40.4456C33.2881 40.8784 33.069 41.09 32.6708 41.1368C32.2435 41.187 31.8514 41.0011 31.8134 40.5853C31.7497 39.8942 31.7592 39.188 31.827 38.4969C31.865 38.1095 32.2367 37.9115 32.6037 37.9345C33.0093 37.9603 33.2867 38.2201 33.3295 38.6637C33.3579 38.9581 33.3349 39.2572 33.3342 39.5543H33.3349Z" fill="#06569F"/>
<path d="M33.3357 31.4159C33.3357 31.713 33.3622 32.0135 33.3296 32.3072C33.2828 32.7332 33.0447 32.9536 32.6581 32.9937C32.2314 33.0378 31.8652 32.8512 31.8238 32.4151C31.7587 31.7232 31.7716 31.0164 31.8299 30.3225C31.8597 29.9684 32.2728 29.748 32.6242 29.7738C32.9878 29.8002 33.2781 30.0526 33.3194 30.4426C33.354 30.7634 33.3262 31.091 33.3262 31.4153C33.3296 31.4153 33.3323 31.4153 33.3357 31.4153V31.4159Z" fill="#06569F"/>
<path d="M37.4894 33.4529C37.4894 30.7492 37.4894 28.0455 37.4894 25.3418C37.4894 25.1525 37.4792 24.9613 37.5043 24.7754C37.564 24.3338 37.8482 24.0747 38.2491 24.0713C38.6411 24.0679 38.9627 24.323 39.0461 24.734C39.0834 24.9172 39.0841 25.1098 39.0841 25.2984C39.0861 30.7329 39.0861 36.1675 39.0827 41.602C39.0827 41.8157 39.0712 42.0375 39.0142 42.2417C38.9057 42.6324 38.6317 42.7999 38.2186 42.7734C37.8231 42.7483 37.5647 42.5286 37.5023 42.1311C37.4731 41.9459 37.4894 41.754 37.4894 41.5647C37.4894 38.861 37.4894 36.1573 37.4894 33.4536V33.4529Z" fill="#06569F"/>
<path d="M45.6441 36.6625C45.6441 36.5276 45.6319 36.3912 45.6462 36.2583C45.695 35.812 46.0294 35.4837 46.4249 35.4823C46.8298 35.4809 47.1825 35.7943 47.2293 36.2427C47.2599 36.5357 47.2592 36.8382 47.228 37.1313C47.1744 37.6366 46.8298 37.9188 46.3564 37.8842C45.9168 37.8523 45.6808 37.5857 45.6421 37.0675C45.6319 36.9332 45.6408 36.7975 45.6408 36.6632H45.6441V36.6625Z" fill="#06569F"/>
<path d="M45.6423 39.9347C45.6423 39.7997 45.6308 39.6641 45.6444 39.5304C45.6925 39.0624 46.0025 38.7511 46.4115 38.747C46.8205 38.7429 47.1719 39.0488 47.2268 39.4972C47.2594 39.7631 47.2526 40.0364 47.2343 40.305C47.1977 40.8497 46.9243 41.1292 46.4461 41.1387C45.9265 41.1495 45.6701 40.8701 45.6403 40.2582C45.6349 40.1504 45.6396 40.0425 45.6396 39.9347H45.6423Z" fill="#06569F"/>
</svg>
