<svg width="72" height="71" viewBox="0 0 72 71" fill="none" xmlns="http://www.w3.org/2000/svg">
<rect x="0.5" width="71" height="71" rx="35.5" fill="white"/>
<path d="M17.3356 27.2944V33.9891C18.8698 34.6498 20.3889 35.3061 21.9095 35.9593C24.0719 36.888 26.2396 37.8061 28.396 38.7491C29.0159 39.0201 29.6343 39.1662 30.3185 39.1518C31.8262 39.1193 33.3355 39.142 34.8893 39.142C35.0528 38.8415 35.2171 38.5599 35.3632 38.2693C37.4726 34.0595 39.5964 29.8565 41.6733 25.63C42.0434 24.8777 42.4824 24.5598 43.3438 24.5848C45.4562 24.6453 47.5725 24.6287 49.6865 24.5901C50.4002 24.5772 50.7946 24.8353 51.0617 25.4877C52.4461 28.8665 53.8653 32.2308 55.2526 35.6088C55.3972 35.9608 55.4699 36.3657 55.4736 36.7472C55.4956 38.7105 55.4388 40.6754 55.4986 42.6373C55.5524 44.4235 54.0197 45.627 52.571 45.4824C51.9761 45.4226 51.3706 45.4726 50.7688 45.4726C49.5608 48.4487 47.4794 50.1539 44.2301 49.9919C41.3585 49.8489 39.5222 48.2027 38.4626 45.5316H29.8379C28.1054 48.9664 25.837 50.3863 22.7481 49.9791C20.1755 49.6408 17.901 47.557 17.4363 44.9526C17.0132 42.5805 17.4961 39.7445 21.2003 37.7349C21.0058 37.6115 20.8582 37.4897 20.6901 37.4163C19.2513 36.7888 17.8178 36.1477 16.3638 35.5596C15.7416 35.3076 15.4926 34.9329 15.5002 34.2593C15.5289 31.7828 15.51 29.3055 15.5138 26.8282C15.5153 25.6853 15.6848 25.5119 16.8255 25.5119C23.4407 25.5097 30.0566 25.4976 36.6718 25.5301C37.4355 25.5339 37.8821 25.3197 38.2378 24.64C38.7691 23.6258 39.4246 22.6767 39.99 21.6783C40.2738 21.178 40.6265 20.9449 41.2199 20.9532C43.1833 20.9812 45.1467 20.9668 47.11 20.9631C47.5195 20.9623 47.9033 21.0001 48.1137 21.4195C48.4331 22.0537 48.0327 22.6933 47.2546 22.7334C46.5613 22.769 45.8657 22.7448 45.1709 22.7455C44.1438 22.7463 43.1159 22.7644 42.0896 22.7364C41.6423 22.7243 41.3721 22.8719 41.1488 23.2655C40.5675 24.2896 39.9083 25.2697 39.3504 26.3059C38.9591 27.0318 38.4528 27.3171 37.6141 27.3103C33.536 27.274 29.4579 27.2959 25.3798 27.2967C23.0539 27.2967 20.728 27.2952 18.4021 27.2937C18.0751 27.2937 17.7481 27.2937 17.3349 27.2937L17.3356 27.2944ZM43.3627 26.3869C43.2015 26.6836 43.0811 26.8925 42.9737 27.1075C40.8271 31.4005 38.6715 35.6883 36.5484 39.9927C36.2109 40.6777 35.7855 40.9752 35.0029 40.9471C33.4339 40.8919 31.8618 40.929 30.2905 40.935C30.0385 40.9358 29.7864 40.9736 29.5548 40.9926C29.7592 41.9167 29.9461 42.7606 30.1406 43.6364H38.1432C38.8365 39.7149 40.9929 37.4776 44.1695 37.327C45.7022 37.2543 47.11 37.6123 48.346 38.5312C50.0483 39.7967 50.8968 41.5322 50.9853 43.6788C51.5174 43.6788 51.9685 43.6863 52.4188 43.6772C53.4596 43.656 53.6753 43.4388 53.6798 42.3731C53.6866 40.6209 53.6738 38.8687 53.6859 37.1165C53.6904 36.5224 53.539 35.9963 53.1636 35.4794C52.8677 35.4794 52.5687 35.4794 52.269 35.4794C50.4562 35.4794 48.6443 35.4832 46.8315 35.4779C45.7832 35.4749 45.5032 35.1948 45.4964 34.1284C45.488 32.769 45.4948 31.4096 45.4964 30.0502C45.4964 29.8088 45.4865 29.5666 45.5009 29.3251C45.5486 28.5183 45.8135 28.2587 46.6188 28.2413C47.132 28.2299 47.6467 28.2239 48.1591 28.2451C48.807 28.2716 49.0969 28.544 49.1082 29.0905C49.1196 29.6271 48.8161 29.9458 48.209 30.0169C47.9237 30.0502 47.6361 30.0616 47.3485 30.0828V33.6379H52.3341C52.3469 33.5372 52.3787 33.4683 52.3591 33.4199C51.4425 31.1871 50.5297 28.9535 49.5851 26.7328C49.5147 26.5678 49.2187 26.4036 49.025 26.4013C47.1547 26.3763 45.2837 26.3862 43.3635 26.3862L43.3627 26.3869ZM23.6594 48.2155C26.1761 48.2118 28.2219 46.181 28.2295 43.6795C28.2378 41.1909 26.1783 39.1458 23.6745 39.1231C21.2003 39.1003 19.0606 41.2227 19.1219 43.7575C19.1817 46.2136 21.1768 48.2201 23.6594 48.2155ZM49.1317 43.6765C49.1347 41.147 47.1116 39.1125 44.604 39.1231C42.0919 39.1336 40.0377 41.178 40.0369 43.6682C40.0362 46.1644 42.0896 48.214 44.5949 48.2163C47.1275 48.2186 49.1287 46.2158 49.1317 43.6765Z" fill="#06569F"/>
<path d="M24.6579 29.1511C25.056 29.1306 25.2854 29.4387 25.4935 29.7869C26.1868 30.9479 26.8854 32.106 27.581 33.2655C27.7513 33.5493 27.9382 33.8248 28.0805 34.1215C28.3318 34.6461 28.1895 35.1002 27.7256 35.356C27.3017 35.5899 26.8567 35.5104 26.5516 35.0427C25.9787 34.1617 25.4534 33.2489 24.913 32.3466C24.5421 31.7283 24.1402 31.1243 23.82 30.4802C23.4734 29.7831 23.8768 29.1344 24.6579 29.1503V29.1511Z" fill="#06569F"/>
<path d="M31.1146 29.1458C31.2372 29.2336 31.5741 29.3607 31.7262 29.6037C32.6503 31.0811 33.5457 32.5767 34.4199 34.0845C34.7212 34.6029 34.5804 35.0737 34.1452 35.3386C33.7077 35.6058 33.2226 35.5188 32.9031 35.0064C31.982 33.5274 31.0768 32.0371 30.2139 30.5233C29.8272 29.8451 30.2101 29.1768 31.1139 29.145L31.1146 29.1458Z" fill="#06569F"/>
<path d="M23.6972 44.5614C23.212 44.578 22.8267 44.2291 22.7965 43.7439C22.7632 43.2194 23.1416 42.7895 23.6472 42.7781C24.1051 42.7683 24.532 43.149 24.5699 43.6001C24.6107 44.0913 24.2005 44.5432 23.6979 44.5606L23.6972 44.5614Z" fill="#06569F"/>
<path d="M44.5775 42.7796C45.1051 42.7721 45.4873 43.1634 45.4744 43.6978C45.4623 44.192 45.1073 44.5462 44.6131 44.5561C44.1052 44.5667 43.6814 44.1436 43.6988 43.6433C43.7147 43.1846 44.1203 42.7865 44.5775 42.7796Z" fill="#06569F"/>
</svg>
