<svg width="143" height="67" viewBox="0 0 143 67" fill="none" xmlns="http://www.w3.org/2000/svg">
<path d="M30.3068 10.8875H36.1955L43.8801 21.8425V10.8875H49.8245V30.6903H43.8801L36.2372 19.8163V30.6903H30.3068V10.8875Z" fill="white"/>
<path d="M53.6528 25.179H59.7086V30.6903H53.6528V25.179Z" fill="white"/>
<path d="M62.0753 10.8875H81.2449V15.7774H74.8133V30.6903H68.5069V15.7774H62.0753V10.8875Z" fill="white"/>
<path d="M83.7508 25.179H89.8066V30.6903H83.7508V25.179Z" fill="white"/>
<path d="M93.6349 10.8875H99.9413V18.371L106.554 10.8875H114.935L107.501 18.3575L115.269 30.6903H107.501L103.199 22.545L99.9413 25.8544V30.6903H93.6349V10.8875Z" fill="white"/>
<path d="M63.899 46.2516H57.5195C57.5926 45.6404 57.8136 45.0663 58.1825 44.5293C58.5549 43.989 59.251 43.3524 60.2707 42.6196C60.8937 42.1705 61.2922 41.8294 61.4662 41.5964C61.6402 41.3634 61.7272 41.1422 61.7272 40.9328C61.7272 40.7066 61.6402 40.5141 61.4662 40.3553C61.2957 40.1932 61.0799 40.1122 60.8189 40.1122C60.5474 40.1122 60.3246 40.1949 60.1506 40.3604C59.9801 40.5259 59.8652 40.818 59.8061 41.2367L57.6761 41.0696C57.7596 40.4887 57.9128 40.0362 58.1355 39.712C58.3583 39.3845 58.6715 39.1346 59.0752 38.9623C59.4824 38.7867 60.0445 38.6989 60.7614 38.6989C61.5097 38.6989 62.0909 38.7817 62.5051 38.9471C62.9227 39.1126 63.2499 39.3676 63.4865 39.712C63.7267 40.0531 63.8467 40.4364 63.8467 40.8619C63.8467 41.3144 63.7093 41.7467 63.4343 42.1587C63.1629 42.5707 62.6669 43.0232 61.9465 43.5162C61.5184 43.8033 61.2313 44.0042 61.0851 44.119C60.9424 44.2338 60.7736 44.3841 60.5787 44.5699H63.899V46.2516Z" fill="white"/>
<path d="M64.8073 42.5082C64.8073 41.0966 65.0683 40.1088 65.5904 39.5449C66.1159 38.9809 66.9147 38.6989 67.9866 38.6989C68.5017 38.6989 68.9246 38.7614 69.2552 38.8863C69.5858 39.0079 69.8555 39.1683 70.0644 39.3676C70.2732 39.5634 70.4368 39.7711 70.5551 39.9906C70.6769 40.2068 70.7744 40.46 70.8474 40.7505C70.9901 41.3043 71.0615 41.8818 71.0615 42.4829C71.0615 43.8303 70.8266 44.8164 70.3567 45.4411C69.8869 46.0659 69.0777 46.3783 67.9292 46.3783C67.2853 46.3783 66.765 46.2786 66.3682 46.0794C65.9715 45.8801 65.6461 45.588 65.392 45.203C65.2076 44.9295 65.0631 44.5564 64.9587 44.0836C64.8578 43.6074 64.8073 43.0823 64.8073 42.5082ZM66.9164 42.5133C66.9164 43.4588 67.0017 44.1055 67.1722 44.4534C67.3462 44.7978 67.5968 44.97 67.924 44.97C68.1397 44.97 68.3259 44.8974 68.4826 44.7522C68.6426 44.6036 68.7592 44.3706 68.8323 44.0532C68.9089 43.7357 68.9472 43.241 68.9472 42.569C68.9472 41.5829 68.8602 40.921 68.6861 40.5833C68.5156 40.2422 68.2581 40.0717 67.9135 40.0717C67.562 40.0717 67.3079 40.2456 67.1513 40.5934C66.9947 40.9379 66.9164 41.5778 66.9164 42.5133Z" fill="white"/>
<path d="M76.757 38.6989V46.2516H74.6062V41.3026C74.2582 41.5593 73.9206 41.7669 73.5934 41.9257C73.2698 42.0844 72.8626 42.2363 72.3718 42.3816V40.6897C73.0957 40.4634 73.6578 40.1916 74.0581 39.8741C74.4583 39.5567 74.7715 39.1649 74.9977 38.6989H76.757Z" fill="white"/>
<path d="M79.1063 38.8256H85.3135V40.2186C84.774 40.6914 84.3233 41.203 83.9613 41.7534C83.5228 42.4221 83.1765 43.1667 82.9225 43.9873C82.7206 44.6256 82.5849 45.3803 82.5153 46.2516H80.3957C80.5628 45.0393 80.8256 44.0228 81.184 43.2022C81.5425 42.3816 82.1098 41.5035 82.8859 40.5681H79.1063V38.8256Z" fill="white"/>
<path d="M8.54161 52.7262H9.82977L11.5108 55.1226V52.7262H12.8111V57.0581H11.5108L9.83891 54.6794V57.0581H8.54161V52.7262Z" fill="white"/>
<path d="M13.6486 55.8525H14.9733V57.0581H13.6486V55.8525Z" fill="white"/>
<path d="M15.491 52.7262H19.6843V53.7959H18.2774V57.0581H16.8979V53.7959H15.491V52.7262Z" fill="white"/>
<path d="M20.2325 55.8525H21.5572V57.0581H20.2325V55.8525Z" fill="white"/>
<path d="M22.3947 52.7262H23.7742V54.3632L25.2207 52.7262H27.0539L25.4278 54.3603L27.127 57.0581H25.4278L24.4868 55.2763L23.7742 56.0002V57.0581H22.3947V52.7262Z" fill="white"/>
<path d="M32.639 55.2881L33.848 55.6427C33.7668 55.9717 33.6389 56.2465 33.4643 56.4671C33.2897 56.6877 33.0725 56.8542 32.8126 56.9665C32.5548 57.0788 32.2259 57.1349 31.8259 57.1349C31.3407 57.1349 30.9438 57.0669 30.6352 56.931C30.3287 56.7931 30.0637 56.5518 29.8404 56.2071C29.6171 55.8623 29.5054 55.4211 29.5054 54.8833C29.5054 54.1662 29.7013 53.6156 30.0932 53.2315C30.487 52.8454 31.0433 52.6523 31.762 52.6523C32.3243 52.6523 32.7659 52.7626 33.0867 52.9833C33.4095 53.2039 33.649 53.5427 33.8054 53.9998L32.5872 54.2627C32.5446 54.1308 32.4999 54.0342 32.4533 53.9732C32.3761 53.8707 32.2817 53.7919 32.17 53.7368C32.0584 53.6816 31.9335 53.654 31.7955 53.654C31.4828 53.654 31.2433 53.7762 31.0768 54.0204C30.9509 54.2017 30.888 54.4863 30.888 54.8744C30.888 55.3551 30.9631 55.685 31.1133 55.8643C31.2636 56.0416 31.4747 56.1302 31.7467 56.1302C32.0107 56.1302 32.2096 56.0583 32.3436 55.9145C32.4796 55.7707 32.5781 55.5619 32.639 55.2881Z" fill="white"/>
<path d="M34.3474 54.8951C34.3474 54.1879 34.5504 53.6373 34.9565 53.2433C35.3625 52.8493 35.9279 52.6523 36.6527 52.6523C37.3958 52.6523 37.9683 52.8464 38.3703 53.2344C38.7722 53.6205 38.9732 54.1623 38.9732 54.8596C38.9732 55.3659 38.8849 55.7816 38.7083 56.1066C38.5337 56.4297 38.2799 56.6818 37.947 56.863C37.616 57.0423 37.2029 57.1319 36.7075 57.1319C36.204 57.1319 35.7868 57.0541 35.4559 56.8985C35.127 56.7429 34.8601 56.4966 34.655 56.1598C34.45 55.8229 34.3474 55.4014 34.3474 54.8951ZM35.7269 54.901C35.7269 55.3383 35.8102 55.6525 35.9767 55.8436C36.1452 56.0347 36.3736 56.1302 36.6618 56.1302C36.9583 56.1302 37.1877 56.0367 37.3501 55.8495C37.5125 55.6624 37.5937 55.3265 37.5937 54.8419C37.5937 54.4341 37.5084 54.1367 37.3379 53.9495C37.1694 53.7604 36.94 53.6659 36.6497 53.6659C36.3715 53.6659 36.1482 53.7614 35.9797 53.9525C35.8112 54.1436 35.7269 54.4597 35.7269 54.901Z" fill="white"/>
<path d="M39.7254 52.7262H41.0136L42.6946 55.1226V52.7262H43.9949V57.0581H42.6946L41.0227 54.6794V57.0581H39.7254V52.7262Z" fill="white"/>
<path d="M44.671 55.6249L45.9835 55.5452C46.0119 55.752 46.0698 55.9096 46.1571 56.0179C46.2992 56.1933 46.5022 56.2809 46.7661 56.2809C46.9631 56.2809 47.1143 56.2366 47.2199 56.148C47.3275 56.0573 47.3813 55.9529 47.3813 55.8347C47.3813 55.7225 47.3305 55.622 47.229 55.5333C47.1275 55.4447 46.892 55.361 46.5225 55.2822C45.9175 55.1502 45.4861 54.9749 45.2283 54.7562C44.9684 54.5375 44.8385 54.2588 44.8385 53.92C44.8385 53.6974 44.9044 53.4876 45.0364 53.2906C45.1704 53.0916 45.3704 52.936 45.6363 52.8237C45.9043 52.7095 46.2708 52.6523 46.7357 52.6523C47.3062 52.6523 47.7406 52.7557 48.0391 52.9626C48.3395 53.1675 48.5182 53.4945 48.575 53.9436L47.2747 54.0175C47.2402 53.8225 47.1671 53.6806 47.0554 53.592C46.9458 53.5033 46.7935 53.459 46.5986 53.459C46.4383 53.459 46.3175 53.4925 46.2363 53.5595C46.155 53.6245 46.1144 53.7043 46.1144 53.7988C46.1144 53.8678 46.1479 53.9298 46.2149 53.985C46.2799 54.0421 46.4342 54.0953 46.6778 54.1445C47.2808 54.2706 47.7122 54.3987 47.9721 54.5287C48.234 54.6567 48.4238 54.8163 48.5415 55.0074C48.6613 55.1985 48.7212 55.4122 48.7212 55.6486C48.7212 55.9263 48.642 56.1824 48.4837 56.4169C48.3253 56.6513 48.104 56.8296 47.8198 56.9517C47.5356 57.0719 47.1772 57.1319 46.7448 57.1319C45.9855 57.1319 45.4597 56.9901 45.1674 56.7064C44.875 56.4228 44.7095 56.0623 44.671 55.6249Z" fill="white"/>
<path d="M49.1049 52.7262H53.2983V53.7959H51.8914V57.0581H50.5118V53.7959H49.1049V52.7262Z" fill="white"/>
<path d="M53.9439 57.0581V52.7262H56.2431C56.6694 52.7262 56.9953 52.7617 57.2206 52.8326C57.446 52.9035 57.6277 53.0355 57.7657 53.2285C57.9038 53.4196 57.9728 53.653 57.9728 53.9288C57.9728 54.1692 57.92 54.377 57.8145 54.5523C57.7089 54.7257 57.5637 54.8665 57.379 54.9749C57.2612 55.0438 57.0998 55.1009 56.8948 55.1463C57.0592 55.1994 57.179 55.2526 57.2541 55.3058C57.3049 55.3413 57.378 55.4171 57.4734 55.5333C57.5708 55.6496 57.6358 55.7392 57.6683 55.8022L58.3352 57.0581H56.776L56.039 55.7343C55.9457 55.5629 55.8624 55.4516 55.7893 55.4004C55.6899 55.3334 55.5772 55.2999 55.4513 55.2999H55.3295V57.0581H53.9439ZM55.3295 54.4814H55.9111C55.9741 54.4814 56.0959 54.4617 56.2766 54.4223C56.3679 54.4046 56.442 54.3593 56.4989 54.2864C56.5578 54.2135 56.5872 54.1298 56.5872 54.0352C56.5872 53.8953 56.5415 53.788 56.4502 53.7131C56.3588 53.6383 56.1873 53.6008 55.9355 53.6008H55.3295V54.4814Z" fill="white"/>
<path d="M61.685 52.7262H63.0615V55.3088C63.0615 55.5649 63.0199 55.8072 62.9366 56.0357C62.8554 56.2622 62.7265 56.4612 62.5499 56.6326C62.3753 56.802 62.1916 56.9212 61.9987 56.9901C61.7307 57.0866 61.4089 57.1349 61.0333 57.1349C60.8161 57.1349 60.5786 57.1201 60.3207 57.0906C60.0649 57.061 59.8507 57.0029 59.6782 56.9162C59.5056 56.8276 59.3473 56.7025 59.2031 56.541C59.061 56.3794 58.9635 56.213 58.9108 56.0416C58.8255 55.7658 58.7829 55.5215 58.7829 55.3088V52.7262H60.1593V55.3708C60.1593 55.6072 60.2263 55.7924 60.3603 55.9263C60.4963 56.0583 60.6841 56.1243 60.9237 56.1243C61.1612 56.1243 61.347 56.0593 61.481 55.9293C61.617 55.7973 61.685 55.6112 61.685 55.3708V52.7262Z" fill="white"/>
<path d="M66.9473 55.2881L68.1563 55.6427C68.0751 55.9717 67.9472 56.2465 67.7726 56.4671C67.598 56.6877 67.3807 56.8542 67.1209 56.9665C66.863 57.0788 66.5341 57.1349 66.1342 57.1349C65.649 57.1349 65.2521 57.0669 64.9435 56.931C64.6369 56.7931 64.372 56.5518 64.1487 56.2071C63.9253 55.8623 63.8137 55.4211 63.8137 54.8833C63.8137 54.1662 64.0096 53.6156 64.4014 53.2315C64.7953 52.8454 65.3516 52.6523 66.0702 52.6523C66.6326 52.6523 67.0742 52.7626 67.395 52.9833C67.7178 53.2039 67.9573 53.5427 68.1136 53.9998L66.8955 54.2627C66.8529 54.1308 66.8082 54.0342 66.7615 53.9732C66.6844 53.8707 66.59 53.7919 66.4783 53.7368C66.3667 53.6816 66.2418 53.654 66.1037 53.654C65.7911 53.654 65.5515 53.7762 65.3851 54.0204C65.2592 54.2017 65.1962 54.4863 65.1962 54.8744C65.1962 55.3551 65.2714 55.685 65.4216 55.8643C65.5718 56.0416 65.783 56.1302 66.055 56.1302C66.3189 56.1302 66.5179 56.0583 66.6519 55.9145C66.7879 55.7707 66.8864 55.5619 66.9473 55.2881Z" fill="white"/>
<path d="M68.5156 52.7262H72.709V53.7959H71.3021V57.0581H69.9225V53.7959H68.5156V52.7262Z" fill="white"/>
<path d="M73.3911 52.7262H74.7737V57.0581H73.3911V52.7262Z" fill="white"/>
<path d="M75.5929 54.8951C75.5929 54.1879 75.7959 53.6373 76.2019 53.2433C76.608 52.8493 77.1734 52.6523 77.8982 52.6523C78.6412 52.6523 79.2137 52.8464 79.6157 53.2344C80.0177 53.6205 80.2187 54.1623 80.2187 54.8596C80.2187 55.3659 80.1304 55.7816 79.9537 56.1066C79.7791 56.4297 79.5254 56.6818 79.1924 56.863C78.8615 57.0423 78.4483 57.1319 77.953 57.1319C77.4495 57.1319 77.0323 57.0541 76.7014 56.8985C76.3725 56.7429 76.1055 56.4966 75.9005 56.1598C75.6954 55.8229 75.5929 55.4014 75.5929 54.8951ZM76.9724 54.901C76.9724 55.3383 77.0556 55.6525 77.2221 55.8436C77.3906 56.0347 77.619 56.1302 77.9073 56.1302C78.2037 56.1302 78.4331 56.0367 78.5955 55.8495C78.758 55.6624 78.8392 55.3265 78.8392 54.8419C78.8392 54.4341 78.7539 54.1367 78.5834 53.9495C78.4148 53.7604 78.1854 53.6659 77.8951 53.6659C77.617 53.6659 77.3937 53.7614 77.2252 53.9525C77.0566 54.1436 76.9724 54.4597 76.9724 54.901Z" fill="white"/>
<path d="M80.9709 52.7262H82.259L83.94 55.1226V52.7262H85.2404V57.0581H83.94L82.2682 54.6794V57.0581H80.9709V52.7262Z" fill="white"/>
<path d="M91.669 57.0581H87.9476C87.9903 56.7015 88.1192 56.3666 88.3344 56.0534C88.5516 55.7382 88.9577 55.3669 89.5525 54.9394C89.9159 54.6774 90.1484 54.4784 90.2499 54.3425C90.3514 54.2066 90.4021 54.0776 90.4021 53.9554C90.4021 53.8234 90.3514 53.7112 90.2499 53.6186C90.1504 53.524 90.0245 53.4767 89.8723 53.4767C89.7139 53.4767 89.584 53.525 89.4825 53.6215C89.383 53.7181 89.316 53.8885 89.2815 54.1327L88.039 54.0352C88.0877 53.6964 88.177 53.4324 88.307 53.2433C88.4369 53.0522 88.6196 52.9064 88.8551 52.806C89.0927 52.7035 89.4205 52.6523 89.8388 52.6523C90.2753 52.6523 90.6143 52.7006 90.8559 52.7971C91.0995 52.8936 91.2903 53.0424 91.4284 53.2433C91.5685 53.4423 91.6385 53.6659 91.6385 53.9141C91.6385 54.178 91.5583 54.4302 91.3979 54.6705C91.2396 54.9108 90.9503 55.1748 90.53 55.4624C90.2803 55.6299 90.1128 55.7471 90.0276 55.8141C89.9443 55.881 89.8459 55.9687 89.7322 56.077H91.669V57.0581Z" fill="white"/>
<path d="M92.1989 54.8744C92.1989 54.051 92.3511 53.4748 92.6557 53.1458C92.9622 52.8168 93.4281 52.6523 94.0534 52.6523C94.3539 52.6523 94.6006 52.6888 94.7934 52.7617C94.9863 52.8326 95.1437 52.9261 95.2655 53.0424C95.3873 53.1566 95.4827 53.2778 95.5517 53.4058C95.6228 53.5319 95.6796 53.6796 95.7223 53.8491C95.8055 54.1721 95.8471 54.509 95.8471 54.8596C95.8471 55.6456 95.7101 56.2208 95.436 56.5853C95.1619 56.9497 94.6899 57.1319 94.0199 57.1319C93.6444 57.1319 93.3408 57.0738 93.1094 56.9576C92.878 56.8414 92.6881 56.671 92.5399 56.4464C92.4323 56.2868 92.3481 56.0692 92.2872 55.7934C92.2283 55.5156 92.1989 55.2093 92.1989 54.8744ZM93.4292 54.8774C93.4292 55.4289 93.4789 55.8062 93.5784 56.0091C93.6799 56.21 93.8261 56.3105 94.0169 56.3105C94.1428 56.3105 94.2514 56.2681 94.3427 56.1834C94.4361 56.0967 94.5041 55.9608 94.5468 55.7756C94.5914 55.5905 94.6138 55.3019 94.6138 54.9099C94.6138 54.3346 94.563 53.9485 94.4615 53.7515C94.362 53.5526 94.2118 53.4531 94.0108 53.4531C93.8058 53.4531 93.6576 53.5546 93.5662 53.7575C93.4748 53.9584 93.4292 54.3317 93.4292 54.8774Z" fill="white"/>
<path d="M99.1695 52.6523V57.0581H97.9149V54.1711C97.7119 54.3209 97.5149 54.442 97.3241 54.5346C97.1353 54.6272 96.8977 54.7158 96.6115 54.8005V53.8136C97.0338 53.6816 97.3616 53.523 97.5951 53.3379C97.8286 53.1527 98.0113 52.9242 98.1433 52.6523H99.1695Z" fill="white"/>
<path d="M100.54 52.7262H104.161V53.5388C103.846 53.8146 103.583 54.113 103.372 54.4341C103.116 54.8242 102.914 55.2585 102.766 55.7372C102.648 56.1095 102.569 56.5498 102.528 57.0581H101.292C101.39 56.3509 101.543 55.7579 101.752 55.2792C101.961 54.8005 102.292 54.2883 102.745 53.7427H100.54V52.7262Z" fill="white"/>
<path d="M109.935 55.2881L111.144 55.6427C111.062 55.9717 110.935 56.2465 110.76 56.4671C110.585 56.6877 110.368 56.8542 110.108 56.9665C109.85 57.0788 109.521 57.1349 109.122 57.1349C108.636 57.1349 108.239 57.0669 107.931 56.931C107.624 56.7931 107.359 56.5518 107.136 56.2071C106.913 55.8623 106.801 55.4211 106.801 54.8833C106.801 54.1662 106.997 53.6156 107.389 53.2315C107.783 52.8454 108.339 52.6523 109.058 52.6523C109.62 52.6523 110.062 52.7626 110.382 52.9833C110.705 53.2039 110.945 53.5427 111.101 53.9998L109.883 54.2627C109.84 54.1308 109.796 54.0342 109.749 53.9732C109.672 53.8707 109.577 53.7919 109.466 53.7368C109.354 53.6816 109.229 53.654 109.091 53.654C108.778 53.654 108.539 53.7762 108.372 54.0204C108.247 54.2017 108.184 54.4863 108.184 54.8744C108.184 55.3551 108.259 55.685 108.409 55.8643C108.559 56.0416 108.77 56.1302 109.042 56.1302C109.306 56.1302 109.505 56.0583 109.639 55.9145C109.775 55.7707 109.874 55.5619 109.935 55.2881Z" fill="white"/>
<path d="M111.582 55.4979C111.582 55.0192 111.749 54.6252 112.082 54.3159C112.415 54.0047 112.864 53.8491 113.431 53.8491C114.078 53.8491 114.568 54.0313 114.898 54.3957C115.164 54.6892 115.297 55.0507 115.297 55.4802C115.297 55.9628 115.132 56.3587 114.801 56.668C114.472 56.9753 114.016 57.129 113.434 57.129C112.914 57.129 112.494 57.0009 112.173 56.7448C111.779 56.4277 111.582 56.012 111.582 55.4979ZM112.825 55.4949C112.825 55.7747 112.882 55.9815 112.998 56.1155C113.116 56.2494 113.263 56.3164 113.44 56.3164C113.618 56.3164 113.765 56.2504 113.878 56.1184C113.994 55.9864 114.052 55.7747 114.052 55.4831C114.052 55.2113 113.994 55.0093 113.878 54.8774C113.763 54.7434 113.619 54.6764 113.449 54.6764C113.268 54.6764 113.119 54.7444 113.001 54.8803C112.884 55.0143 112.825 55.2191 112.825 55.4949Z" fill="white"/>
<path d="M115.897 55.8525H117.222V57.0581H115.897V55.8525Z" fill="white"/>
<path d="M117.974 55.8643H119.299V56.8542C119.299 57.2186 119.221 57.5062 119.064 57.717C118.908 57.9278 118.641 58.1139 118.264 58.2755L117.974 57.7495C118.21 57.6431 118.371 57.5368 118.458 57.4304C118.548 57.326 118.597 57.2019 118.608 57.0581H117.974V55.8643Z" fill="white"/>
<path d="M122.213 52.7262H123.593V55.9914H125.746V57.0581H122.213V52.7262Z" fill="white"/>
<path d="M127.786 52.7262V53.92H128.468V54.7976H127.786V55.9116C127.786 56.0455 127.799 56.1342 127.826 56.1775C127.866 56.2445 127.937 56.278 128.039 56.278C128.13 56.278 128.258 56.2524 128.423 56.2011L128.514 57.0315C128.207 57.0965 127.921 57.129 127.655 57.129C127.347 57.129 127.119 57.0906 126.973 57.0137C126.827 56.9369 126.718 56.8207 126.647 56.6651C126.578 56.5075 126.544 56.2533 126.544 55.9027V54.7976H126.087V53.92H126.544V53.3438L127.786 52.7262Z" fill="white"/>
<path d="M132.467 52.7262V57.0581H131.307V56.5941C131.144 56.7911 130.996 56.9241 130.862 56.9931C130.683 57.0837 130.484 57.129 130.265 57.129C129.824 57.129 129.487 56.9665 129.254 56.6414C129.023 56.3164 128.907 55.9214 128.907 55.4565C128.907 54.9365 129.035 54.5385 129.291 54.2627C129.548 53.987 129.875 53.8491 130.271 53.8491C130.464 53.8491 130.639 53.8806 130.795 53.9436C130.953 54.0066 131.093 54.1012 131.215 54.2273V52.7262H132.467ZM131.224 55.4802C131.224 55.2339 131.17 55.0507 131.063 54.9305C130.955 54.8084 130.819 54.7473 130.655 54.7473C130.511 54.7473 130.39 54.8055 130.292 54.9217C130.195 55.0379 130.146 55.2329 130.146 55.5067C130.146 55.7628 130.196 55.951 130.295 56.0711C130.397 56.1893 130.522 56.2484 130.67 56.2484C130.828 56.2484 130.96 56.1883 131.066 56.0682C131.172 55.948 131.224 55.752 131.224 55.4802Z" fill="white"/>
<path d="M133.225 55.8525H134.55V57.0581H133.225V55.8525Z" fill="white"/>
</svg>
